<svg width="18" height="22" viewBox="0 0 18 22" fill="none" xmlns="http://www.w3.org/2000/svg">
<path d="M5.03455 17.5703H12.6517C12.847 17.5703 13.0131 17.5052 13.1498 17.375C13.2865 17.2383 13.3549 17.0755 13.3549 16.8867C13.3549 16.6849 13.2865 16.5189 13.1498 16.3887C13.0131 16.252 12.847 16.1836 12.6517 16.1836H5.03455C4.82621 16.1836 4.65369 16.252 4.51697 16.3887C4.38025 16.5189 4.31189 16.6849 4.31189 16.8867C4.31189 17.0755 4.38025 17.2383 4.51697 17.375C4.65369 17.5052 4.82621 17.5703 5.03455 17.5703ZM5.03455 13.9082H12.6517C12.847 13.9082 13.0131 13.8431 13.1498 13.7129C13.2865 13.5827 13.3549 13.4167 13.3549 13.2148C13.3549 13.0195 13.2865 12.8568 13.1498 12.7266C13.0131 12.5898 12.847 12.5215 12.6517 12.5215H5.03455C4.82621 12.5215 4.65369 12.5898 4.51697 12.7266C4.38025 12.8568 4.31189 13.0195 4.31189 13.2148C4.31189 13.4167 4.38025 13.5827 4.51697 13.7129C4.65369 13.8431 4.82621 13.9082 5.03455 13.9082ZM3.6283 21.5352C2.57361 21.5352 1.77608 21.2617 1.23572 20.7148C0.701864 20.1745 0.434937 19.377 0.434937 18.3223V3.58594C0.434937 2.53776 0.701864 1.74023 1.23572 1.19336C1.77608 0.646484 2.57361 0.373047 3.6283 0.373047H8.08142V7.77539C8.08142 8.98633 8.68363 9.5918 9.88806 9.5918H17.222V18.3223C17.222 19.377 16.9519 20.1745 16.4115 20.7148C15.8711 21.2617 15.0769 21.5352 14.0287 21.5352H3.6283ZM10.0834 8.14648C9.70577 8.14648 9.51697 7.96419 9.51697 7.59961V0.470703C9.73832 0.496745 9.95968 0.587891 10.181 0.744141C10.4089 0.900391 10.6465 1.10221 10.8939 1.34961L16.226 6.76953C16.4799 7.02995 16.6849 7.27083 16.8412 7.49219C16.9974 7.71354 17.0886 7.93164 17.1146 8.14648H10.0834Z" fill="#EEBD1D"/>
</svg>
