<svg width="22" height="20" viewBox="0 0 22 20" fill="none" xmlns="http://www.w3.org/2000/svg">
<path d="M0.746742 1.77539C0.912758 1.04297 1.58659 0.945312 2.0358 1.41406C3.45182 2.9082 5.20963 3.02539 6.76237 3.02539C8.20768 3.02539 10.0631 2.625 11.6549 2.625C16.4596 2.625 19.7799 5.03711 19.7799 9.83203C19.7799 10.2812 19.7506 10.7207 19.7018 11.0039C19.6335 11.4141 19.1647 11.5801 18.7839 11.2383C14.5846 7.38086 10.1413 10.291 6.7526 6.80469C6.47916 6.51172 6.14713 6.75586 6.26432 7.06836C7.91471 11.4434 14.526 9.02148 18.8717 13.0547C19.8971 14.0215 21.8796 16.3945 21.8796 17.7617C21.8796 18.6699 21.2643 19.3242 20.5026 19.3242C20.1217 19.3242 19.7799 19.1289 19.6335 18.6504C19.1159 17.0391 18.6764 15.8379 17.8756 14.7051C16.8991 15.7891 14.9362 17.2637 11.6159 17.2637C4.86784 17.2637 0.453773 12.3711 0.453773 4.97852C0.453773 4.08984 0.531898 2.77148 0.746742 1.77539Z" fill="#EEBD1D"/>
</svg>
