<svg width="23" height="22" viewBox="0 0 23 22" fill="none" xmlns="http://www.w3.org/2000/svg">
<path d="M4.81055 21.4414C4.60872 21.2917 4.48503 21.0898 4.43945 20.8359C4.40039 20.582 4.44271 20.2793 4.56641 19.9277L6.60742 13.8535L1.39258 10.1035C1.08659 9.88867 0.875 9.66732 0.757812 9.43945C0.640625 9.21159 0.621094 8.97721 0.699219 8.73633C0.777344 8.50195 0.930339 8.32617 1.1582 8.20898C1.38607 8.0918 1.6888 8.03646 2.06641 8.04297L8.46289 8.08203L10.4062 1.97852C10.5234 1.62044 10.6699 1.35026 10.8457 1.16797C11.028 0.985677 11.2428 0.894531 11.4902 0.894531C11.7441 0.894531 11.959 0.985677 12.1348 1.16797C12.3171 1.35026 12.4668 1.62044 12.584 1.97852L14.5273 8.08203L20.9238 8.04297C21.3014 8.03646 21.6042 8.0918 21.832 8.20898C22.0599 8.32617 22.2129 8.50195 22.291 8.73633C22.3691 8.97721 22.3496 9.21159 22.2324 9.43945C22.1152 9.66732 21.9036 9.88867 21.5977 10.1035L16.3828 13.8535L18.4238 19.9277C18.5475 20.2793 18.5866 20.582 18.541 20.8359C18.502 21.0898 18.3815 21.2917 18.1797 21.4414C17.9779 21.5977 17.75 21.6497 17.4961 21.5977C17.2422 21.5521 16.9655 21.4219 16.666 21.207L11.4902 17.4082L6.32422 21.207C6.02474 21.4219 5.74805 21.5521 5.49414 21.5977C5.24023 21.6497 5.01237 21.5977 4.81055 21.4414Z" fill="#EEBD1D"/>
</svg>
